<svg width="21" height="23" viewBox="0 0 21 23" fill="none" xmlns="http://www.w3.org/2000/svg">
<path fill-rule="evenodd" clip-rule="evenodd" d="M18.5447 16.4673L13.8677 14.7548V12.3926C15.3007 11.1894 16.2427 9.18489 16.2427 6.91797C16.2427 3.24499 13.7757 0.256601 10.7427 0.256601C7.70968 0.256601 5.24268 3.24499 5.24268 6.91797C5.24268 9.31401 6.29568 11.4118 7.86768 12.5863V14.7558L3.18968 16.4683C1.80068 16.9766 0.867676 18.3335 0.867676 19.8451V21.7779C0.867676 22.0608 1.09168 22.2904 1.36768 22.2904H20.3677C20.6437 22.2904 20.8677 22.0608 20.8677 21.7779V19.8451C20.8677 18.3345 19.9337 16.9766 18.5447 16.4673ZM10.7427 1.28143C12.9467 1.28143 14.7817 3.27676 15.1657 5.90032C15.1587 5.90134 15.1547 5.90032 15.1477 5.90237C13.6967 6.19034 12.7957 5.7056 11.9417 4.17349C11.8517 4.01054 11.7167 3.91728 11.4977 3.91523C11.3147 3.9183 11.1487 4.02386 11.0637 4.19091C10.6037 5.09788 9.05068 5.89314 7.74268 5.89314C7.23368 5.89314 6.79668 5.80706 6.36668 5.62669C6.83468 3.13944 8.61668 1.28143 10.7427 1.28143ZM6.24268 6.91797C6.24268 6.83496 6.24968 6.754 6.25268 6.67201C6.72168 6.83291 7.20668 6.91797 7.74268 6.91797C9.11668 6.91797 10.6237 6.24876 11.4777 5.32949C12.2747 6.46602 13.2147 7.00508 14.4087 7.00508C14.6717 7.00508 14.9527 6.97024 15.2427 6.91797C15.2427 10.0263 13.2237 12.5545 10.7427 12.5545C8.26168 12.5545 6.24268 10.0263 6.24268 6.91797ZM19.8677 21.2655H1.86768V19.8451C1.86768 18.765 2.53468 17.7955 3.52668 17.4327L8.53568 15.5993C8.73468 15.5265 8.86768 15.3328 8.86768 15.1166V13.1725C9.45368 13.4307 10.0837 13.5793 10.7427 13.5793C11.4957 13.5793 12.2137 13.3938 12.8677 13.0608V15.1166C12.8677 15.3328 13.0007 15.5265 13.1997 15.5993L18.2077 17.4327C19.2007 17.7965 19.8677 18.766 19.8677 19.8451V21.2655Z" fill="white"/>
</svg>
